<svg xmlns="http://www.w3.org/2000/svg" width="421.999" height="512" viewBox="0 0 421.999 512">
  <g id="electric-car" transform="translate(-45)">
    <g id="Groupe_19" data-name="Groupe 19">
      <path id="Tracé_10" data-name="Tracé 10" d="M52.5,455.27a7.5,7.5,0,0,0,7.5-7.5V17.5A2.5,2.5,0,0,1,62.5,15h226a2.5,2.5,0,0,1,2.5,2.5V64.077a7.5,7.5,0,0,0,15,0V17.5A17.521,17.521,0,0,0,288.5,0H62.5A17.521,17.521,0,0,0,45,17.5V447.77A7.5,7.5,0,0,0,52.5,455.27Z" fill="#fa0"/>
      <path id="Tracé_11" data-name="Tracé 11" d="M276,222V37.5a7.5,7.5,0,0,0-7.5-7.5H82.5A7.5,7.5,0,0,0,75,37.5V222a7.5,7.5,0,0,0,7.5,7.5h186A7.5,7.5,0,0,0,276,222Zm-15-7.5H90V45H261Z" fill="#fa0"/>
      <path id="Tracé_12" data-name="Tracé 12" d="M239.521,90.5a7.5,7.5,0,0,0,7.5-7.5V68a7.5,7.5,0,0,0-15,0V83A7.5,7.5,0,0,0,239.521,90.5Z" fill="#fa0"/>
      <path id="Tracé_13" data-name="Tracé 13" d="M208.021,90.5a7.5,7.5,0,0,0,7.5-7.5V68a7.5,7.5,0,0,0-15,0V83A7.5,7.5,0,0,0,208.021,90.5Z" fill="#fa0"/>
      <path id="Tracé_14" data-name="Tracé 14" d="M176.521,90.5a7.5,7.5,0,0,0,7.5-7.5V68a7.5,7.5,0,0,0-15,0V83A7.5,7.5,0,0,0,176.521,90.5Z" fill="#fa0"/>
      <path id="Tracé_15" data-name="Tracé 15" d="M145.021,90.5a7.5,7.5,0,0,0,7.5-7.5V68a7.5,7.5,0,0,0-15,0V83A7.5,7.5,0,0,0,145.021,90.5Z" fill="#fa0"/>
      <path id="Tracé_16" data-name="Tracé 16" d="M113.521,90.5a7.5,7.5,0,0,0,7.5-7.5V68a7.5,7.5,0,0,0-15,0V83A7.5,7.5,0,0,0,113.521,90.5Z" fill="#fa0"/>
      <path id="Tracé_17" data-name="Tracé 17" d="M140.886,449.83a10.16,10.16,0,0,0,11.868-.888l76.326-64.215a10.174,10.174,0,0,0,1.033-14.573L203.923,340.9l14.495-53.3a10.174,10.174,0,0,0-16.432-10.4l-70.863,60.636a10.221,10.221,0,0,0-1.6,13.727l20.549,28.148L136.3,438.849a10.157,10.157,0,0,0,4.589,10.981Zm3.383-103.495,55.56-47.541L188.759,339.5A10.135,10.135,0,0,0,191,348.955l24.62,27.5L154.2,428.128l10.986-47.163a10.17,10.17,0,0,0-1.692-8.3Z" fill="#fa0"/>
      <path id="Tracé_18" data-name="Tracé 18" d="M455.5,122.961h-46a11.513,11.513,0,0,0-11.5,11.5v22a11.517,11.517,0,0,0,10,11.4v76.6a11.513,11.513,0,0,0,11.5,11.5h5.31V352.67a24.585,24.585,0,0,1-46.4,11.335l-46.1-88.8a52.445,52.445,0,0,0,7.7-27.262V227.664A12.678,12.678,0,0,0,327.337,215H306V96.23a7.5,7.5,0,0,0-15,0V494.5a2.5,2.5,0,0,1-2.5,2.5H62.5a2.5,2.5,0,0,1-2.5-2.5V480.18a7.5,7.5,0,1,0-15,0V494.5A17.521,17.521,0,0,0,62.5,512h226A17.521,17.521,0,0,0,306,494.5V302.714l15.847-15.094,43.245,83.293a39.584,39.584,0,0,0,74.717-18.243V255.961h5.69a11.513,11.513,0,0,0,11.5-11.5v-20.23a7.5,7.5,0,0,0-15,0v16.73H423v-73h19v23.347a7.5,7.5,0,0,0,15,0V167.863a11.517,11.517,0,0,0,10-11.4v-22a11.512,11.512,0,0,0-11.5-11.5ZM313.445,274.909,306,282V230h19v17.945A37.4,37.4,0,0,1,313.445,274.909ZM413,152.961v-15h39v15Z" fill="#fa0"/>
      <path id="Tracé_19" data-name="Tracé 19" d="M239.521,101H114a7.5,7.5,0,0,0,0,15H239.521a7.5,7.5,0,0,0,0-15Z" fill="#fa0"/>
      <path id="Tracé_20" data-name="Tracé 20" d="M223,138H130a7.5,7.5,0,0,0-7.5,7.5v44A7.5,7.5,0,0,0,130,197h93a7.5,7.5,0,0,0,7.5-7.5v-44A7.5,7.5,0,0,0,223,138Zm-85.5,44V153h47v29Zm78,0h-16V153h16Z" fill="#fa0"/>
    </g>
  </g>
</svg>
