<svg xmlns="http://www.w3.org/2000/svg" width="471" height="496" viewBox="0 0 471 496">
  <path id="thermometer" d="M376.5,397a37,37,0,1,1-53-33.358V163a16,16,0,0,1,32,0V363.642A37.045,37.045,0,0,1,376.5,397ZM100.5,44a44,44,0,1,1-44-44A44.049,44.049,0,0,1,100.5,44Zm-32,0a12,12,0,1,0-12,12A12.013,12.013,0,0,0,68.5,44ZM218.7,174.549a16,16,0,0,0-22.524,2.159C174.494,202.987,131.5,187.68,131.5,153.5v-47c0-34.151,42.972-49.5,64.672-23.21a16,16,0,1,0,24.679-20.369A68.5,68.5,0,0,0,99.5,106.5v47a68.5,68.5,0,0,0,121.356,43.573A16,16,0,0,0,218.7,174.549ZM483.5,72a16,16,0,0,1-16,16h-61v68h41a16,16,0,0,1,0,32h-41v68h21a16,16,0,0,1,0,32h-21v36.11a99,99,0,1,1-134,0V67A67,67,0,0,1,405.582,56H467.5a16,16,0,0,1,16,16Zm-77,325a66.6,66.6,0,0,0-25.835-52.86,16,16,0,0,1-6.165-12.62V67a35,35,0,0,0-70,0V331.52a16,16,0,0,1-6.165,12.62A67,67,0,1,0,406.5,397Z" transform="translate(-12.5)" fill="#fa0"/>
</svg>
