<svg xmlns="http://www.w3.org/2000/svg" width="1899.737" height="669" viewBox="0 0 1899.737 669">
  <g id="logo1" transform="translate(-231.999 -200.001)">
    <path id="steering-wheel_2_" data-name="steering-wheel (2)" d="M480.336,256.344a19.217,19.217,0,0,0-3.48-7.137l-49.7-63.9a24.653,24.653,0,0,0-23.023-8.848,191.708,191.708,0,0,0-312.242-.013A24.734,24.734,0,0,0,68.853,185.3L19.161,249.192a19.09,19.09,0,0,0-3.5,7.168L.575,316.719A19.158,19.158,0,0,0,0,321.383v69.234a19.159,19.159,0,0,0,.574,4.664L13.754,448H0v48H128V448H112V423.45a191.838,191.838,0,0,0,272.011.012L384,448H368v48H496V448H482.247l13.18-52.719a19.159,19.159,0,0,0,.574-4.664V321.383a19.159,19.159,0,0,0-.574-4.664ZM248,112c97.047,0,176,78.953,176,176a175.135,175.135,0,0,1-7.953,52.32l-12.461-41.543a26.173,26.173,0,0,0-11.8-15.059C389.5,206.312,325.961,144,248,144S106.5,206.312,104.215,283.719a26.173,26.173,0,0,0-11.8,15.059L79.953,340.32A175.132,175.132,0,0,1,72,288C72,190.953,150.953,112,248,112ZM200.184,292.289A68.693,68.693,0,0,1,219.406,248h57.188a68.659,68.659,0,0,1,19.223,44.289A71.978,71.978,0,0,0,264,352v62.922A126.521,126.521,0,0,1,248,416a129.176,129.176,0,0,1-16-1.039V352a71.978,71.978,0,0,0-31.816-59.711ZM198.816,248a84.291,84.291,0,0,0-13.961,36.512A71.619,71.619,0,0,0,160,280H120.406a127,127,0,0,1,6.09-32Zm-65.738-16a127.716,127.716,0,0,1,229.844,0Zm8.793,64H160a56.068,56.068,0,0,1,56,56v59.922a127.425,127.425,0,0,1-82.3-66.258l-.582.3,9.535-28.6A26.44,26.44,0,0,0,144,309.023v-2.672A26.3,26.3,0,0,0,141.871,296ZM280,352a56.068,56.068,0,0,1,56-56h18.129A26.3,26.3,0,0,0,352,306.352v2.672a26.44,26.44,0,0,0,1.352,8.336l9.207,27.633A128.573,128.573,0,0,1,280,411.816Zm56-72a71.619,71.619,0,0,0-24.855,4.512A84.291,84.291,0,0,0,297.184,248h72.328a127.7,127.7,0,0,1,6.09,32ZM112,480H16V464h96ZM96,406.7V448H30.258L16,390.617l.1-70.023,15.078-60.328a3.135,3.135,0,0,1,.6-1.227L76.969,200.93A190.366,190.366,0,0,0,58.3,258.359a19.136,19.136,0,0,0-2.578,5.777l-14.6,58.4a19.108,19.108,0,0,0,.809,11.824L53.742,363.9a19.261,19.261,0,0,0,36.328-1.629l17.672-58.9A10.347,10.347,0,0,1,128,306.352v2.672a10.331,10.331,0,0,1-.527,3.273ZM69.633,359.1a2.661,2.661,0,0,1-1.039-1.145L56.777,328.433a3.281,3.281,0,0,1-.137-2.02l1.848-7.383A189.694,189.694,0,0,0,69.632,359.1ZM248,464a175.48,175.48,0,0,1-133.7-61.625L126.633,365.4A143.223,143.223,0,0,0,248,432a144.671,144.671,0,0,0,121.367-66.594l12.32,36.961A175.347,175.347,0,0,1,248,464Zm232,16H384V464h96Zm-.1-88.594L465.754,448H400V406.7l-31.473-94.4a10.332,10.332,0,0,1-.527-3.273v-2.672a10.347,10.347,0,0,1,20.258-2.977l17.672,58.9a19.257,19.257,0,0,0,36.328,1.613l11.82-29.543a19.13,19.13,0,0,0,.8-11.816l-14.6-58.414a19.135,19.135,0,0,0-2.578-5.762,190.256,190.256,0,0,0-18.664-57.414l45.191,58.109a3.3,3.3,0,0,1,.586,1.184L480,321.383ZM426.375,359.1a189.014,189.014,0,0,0,11.137-40.066l1.848,7.375a3.24,3.24,0,0,1-.137,2.008l-11.816,29.531a2.709,2.709,0,0,1-1.031,1.152ZM272,288a24,24,0,1,0-24,24A24,24,0,0,0,272,288Zm-32,0a8,8,0,1,1,8,8A8,8,0,0,1,240,288ZM298.32,37.055a70.66,70.66,0,0,0-100.641,0L186.32,25.809a86.608,86.608,0,0,1,123.359,0Zm-22.4,22.633a39.2,39.2,0,0,0-55.844,0L208.711,48.442a55.164,55.164,0,0,1,78.578,0ZM264.887,71.063l-11.375,11.25a7.9,7.9,0,0,0-11.023,0l-11.375-11.25C240.121,61.954,255.879,61.954,264.887,71.063Zm0,0" transform="translate(231.999 200)" fill="#fa0"/>
    <text id="YouCar.ma" transform="translate(748.736 686)" fill="#fa0" font-size="559" font-family="FreestyleScript-Regular, Freestyle Script"><tspan x="0" y="0">YouCar</tspan><tspan y="0" font-size="400">.ma</tspan></text>
  </g>
</svg>
